<?xml version="1.0" standalone="no"?>
<!DOCTYPE svg PUBLIC "-//W3C//DTD SVG 20010904//EN"
 "http://www.w3.org/TR/2001/REC-SVG-20010904/DTD/svg10.dtd">
<svg version="1.0" xmlns="http://www.w3.org/2000/svg"
 width="460.000000pt" height="460.000000pt" viewBox="0 0 460.000000 460.000000"
 preserveAspectRatio="xMidYMid meet">
<metadata>
Created by potrace 1.11, written by Peter Selinger 2001-2013
</metadata>
<g transform="translate(0.000000,460.000000) scale(0.100000,-0.100000)"
fill="#000000" stroke="none">
<path d="M425 4563 c13 -63 19 -194 14 -308 -1 -16 1 -98 5 -181 3 -84 2 -172
-2 -196 -5 -25 -5 -55 0 -67 4 -13 10 -123 13 -245 2 -121 7 -285 10 -363 5
-97 3 -153 -5 -177 -8 -25 -8 -46 -1 -73 8 -29 16 -476 13 -648 -1 -11 1 -56
3 -100 10 -233 9 -269 -9 -303 -17 -32 -17 -35 1 -70 15 -31 18 -69 21 -242 5
-337 10 -528 16 -665 4 -71 7 -250 7 -397 1 -165 5 -268 11 -268 21 0 -4 -19
-35 -26 -17 -3 -48 -14 -67 -22 -19 -8 -55 -24 -80 -35 -25 -10 -73 -32 -106
-48 -34 -16 -68 -29 -76 -29 -8 0 -23 -7 -34 -15 -10 -8 -27 -15 -36 -15 -10
0 -18 -5 -18 -11 0 -5 -4 -8 -9 -4 -16 9 -61 -17 -61 -36 0 -18 35 -18 784
-19 623 0 785 2 790 12 5 10 7 10 12 1 3 -8 24 -13 50 -13 42 0 44 1 38 25 -5
19 -2 25 9 25 11 0 14 -7 11 -24 -4 -23 -2 -24 56 -23 44 1 59 4 56 13 -3 7 2
15 10 18 22 9 23 8 17 -14 -6 -22 12 -28 21 -7 5 9 7 9 12 0 4 -10 288 -13
1370 -13 l1364 0 0 2300 0 2300 -510 0 -510 0 0 -202 c0 -228 13 -470 36 -663
9 -71 17 -195 18 -275 7 -344 18 -597 28 -630 5 -19 11 -98 14 -175 2 -77 9
-161 15 -188 9 -40 8 -51 -5 -72 -15 -22 -24 -25 -76 -25 -50 0 -60 3 -60 18
0 14 -2 15 -10 2 -13 -20 -13 -67 0 -75 6 -3 10 -1 10 4 0 14 109 14 130 1 12
-8 13 -14 3 -41 -7 -18 -9 -37 -5 -43 4 -6 7 -40 8 -76 2 -63 14 -196 35 -385
6 -49 13 -209 15 -355 3 -146 10 -285 16 -310 12 -50 22 -245 19 -388 -1 -88
0 -94 25 -117 15 -14 33 -25 40 -25 7 0 16 -5 19 -10 11 -18 -19 -11 -54 13
-250 164 -279 186 -332 255 -67 84 -109 124 -180 167 -54 34 -56 36 -63 87 -3
29 -6 113 -6 186 l0 133 41 48 c81 94 148 253 149 352 0 65 12 100 36 111 27
12 74 113 73 154 -1 28 -1 28 -8 5 -4 -14 -13 -27 -20 -29 -11 -4 -12 7 -7 54
4 33 3 54 -1 47 -5 -6 -21 -15 -36 -18 -24 -6 -27 -4 -27 16 0 13 -3 35 -7 48
-4 16 -2 22 4 18 11 -7 23 23 23 61 0 26 15 29 25 5 5 -15 11 -11 31 22 13 22
24 54 24 72 0 17 4 43 10 58 22 58 -30 179 -73 171 -12 -1 -17 -1 -11 1 16 6
10 234 -9 328 -8 44 -18 117 -21 161 -6 79 -16 123 -71 309 -14 50 -32 115
-39 145 -7 30 -23 86 -35 124 -11 37 -21 79 -21 92 0 43 -40 106 -113 178 -77
77 -135 126 -148 126 -4 0 13 -20 39 -45 l47 -46 -40 7 c-22 4 -43 12 -47 18
-5 7 -12 4 -23 -9 -12 -16 -14 -17 -9 -2 4 11 1 17 -9 17 -9 0 -20 8 -26 17
-8 16 -13 16 -46 4 -28 -10 -40 -10 -48 -1 -9 8 -8 15 6 25 12 8 14 15 8 20
-17 10 -13 22 12 30 15 4 18 8 8 12 -9 4 -6 12 15 28 27 21 27 22 6 27 -12 4
-22 2 -22 -3 0 -5 -6 -9 -12 -9 -7 0 -24 -12 -37 -25 -18 -20 -27 -23 -37 -14
-11 9 -14 8 -14 -6 0 -13 -3 -15 -13 -6 -8 6 -17 8 -21 4 -4 -4 -4 1 0 12 7
19 7 19 -13 2 -11 -9 -23 -14 -26 -10 -4 3 -7 1 -7 -6 0 -8 -8 -10 -22 -5 -13
3 -20 3 -16 -1 4 -5 3 -14 -3 -21 -9 -11 -16 -9 -40 8 -16 12 -29 29 -29 39 0
12 -7 15 -26 13 -15 -1 -38 5 -51 14 -19 12 -47 15 -116 13 -69 -1 -102 3
-130 15 -29 13 -40 15 -49 6 -9 -9 -7 -12 11 -12 12 0 20 -4 17 -9 -3 -5 26
-12 64 -15 89 -9 94 -28 5 -23 -51 4 -65 2 -65 -9 0 -8 -7 -14 -16 -14 -12 0
-14 3 -6 13 8 10 2 12 -30 12 -24 0 -43 6 -46 13 -2 6 -12 12 -23 12 -10 0
-28 9 -39 20 -11 11 -27 20 -36 20 -10 0 -14 6 -10 15 3 9 0 15 -9 15 -8 0
-15 -4 -15 -10 0 -5 -7 -10 -15 -10 -8 0 -25 -10 -37 -22 -23 -23 -24 -23 30
-1 8 3 10 0 6 -11 -3 -9 -11 -13 -18 -9 -6 4 -5 -1 3 -10 8 -10 28 -17 48 -17
24 0 32 -4 27 -12 -5 -8 -2 -9 9 -5 18 7 21 -1 11 -27 -3 -9 -12 -16 -20 -16
-7 0 -11 -6 -8 -13 4 -10 -8 -14 -43 -15 -91 -2 -127 6 -140 33 -8 19 -8 25 0
26 28 3 32 5 35 14 5 16 -88 31 -98 16 -5 -9 -16 -11 -31 -6 -23 7 -23 7 -4
-8 13 -10 24 -12 32 -6 7 7 13 6 17 0 11 -17 -13 -23 -99 -23 -64 -1 -85 -4
-90 -15 -3 -8 -12 -13 -20 -9 -9 3 -15 0 -15 -9 0 -8 -6 -15 -14 -15 -7 0 -19
-7 -26 -15 -7 -8 -20 -15 -29 -15 -24 0 -125 -43 -134 -58 -5 -7 -19 -17 -32
-22 -33 -13 -90 -88 -110 -145 -9 -27 -20 -54 -24 -60 -5 -5 -16 -39 -24 -75
-32 -130 -43 -160 -77 -207 -50 -68 -54 -79 -58 -163 -8 -177 -6 -270 11 -365
10 -55 22 -129 26 -165 5 -36 20 -101 35 -145 14 -44 33 -129 42 -188 15 -104
15 -110 -3 -129 -15 -17 -19 -41 -21 -155 -3 -102 -1 -133 8 -128 9 5 10 2 6
-12 -10 -32 105 -263 150 -303 48 -42 95 -61 131 -54 28 6 30 3 67 -79 43 -98
113 -210 178 -285 49 -58 59 -89 73 -247 4 -38 9 -77 11 -86 3 -11 -19 -40
-62 -80 -36 -35 -96 -102 -132 -149 -36 -47 -77 -97 -91 -111 -34 -34 -149
-130 -181 -150 -43 -27 -306 -106 -415 -124 -80 -13 -220 -48 -233 -58 -21
-16 -23 -2 -6 32 14 27 15 56 10 179 -3 81 -6 154 -6 162 0 8 0 54 0 102 0 47
-6 115 -14 150 -14 61 -14 167 0 271 3 27 1 99 -5 160 -24 244 -23 449 4 518
4 11 -7 19 -50 33 -59 18 -62 29 -18 68 16 15 17 25 9 116 -7 79 -6 116 6 178
9 45 14 102 11 132 -4 33 -2 52 5 52 7 0 11 42 11 116 1 90 -2 119 -14 130 -8
9 -17 25 -19 37 -2 12 -9 49 -16 82 -15 74 -13 215 5 264 11 32 11 46 -2 92
-10 39 -12 76 -7 134 3 44 6 91 6 105 -1 14 -3 105 -6 202 -2 98 -7 182 -11
188 -3 5 -1 19 5 31 13 23 15 227 5 314 -4 29 -4 59 0 66 4 6 6 50 4 98 -2 47
-4 127 -4 176 -2 148 5 135 -71 135 l-67 0 8 -37z m2019 -422 c4 -5 -3 -7 -14
-4 -23 6 -26 13 -6 13 8 0 17 -4 20 -9z m-693 -77 c10 -13 10 -17 0 -24 -8 -4
-10 -13 -7 -19 5 -7 -4 -16 -21 -24 -15 -7 -39 -19 -53 -28 -14 -9 -38 -20
-53 -23 -23 -6 -28 -4 -25 11 3 20 83 83 105 83 7 0 13 5 13 10 0 6 -18 10
-41 10 -57 0 -39 17 20 18 33 1 53 -3 62 -14z m759 -27 c-14 -7 -40 -22 -58
-35 -37 -27 -43 -16 -9 15 25 23 44 31 72 31 17 0 16 -1 -5 -11z m-620 -31 c0
-2 -11 -6 -25 -8 -14 -3 -25 -1 -25 3 0 5 11 9 25 9 14 0 25 -2 25 -4z m-380
-26 c0 -5 -7 -7 -15 -4 -8 4 -15 8 -15 10 0 2 7 4 15 4 8 0 15 -4 15 -10z
m216 -26 c-11 -8 -27 -14 -35 -14 -9 0 -3 8 14 19 34 21 50 17 21 -5z m-383
-65 c-40 -45 -87 -89 -91 -84 -13 13 75 115 100 115 16 0 14 -4 -9 -31z m637
-4 c-34 -25 -50 -31 -50 -17 0 7 57 38 74 41 6 0 -5 -10 -24 -24z m-93 -41
c-3 -3 -12 -4 -19 -1 -8 3 -5 6 6 6 11 1 17 -2 13 -5z m-517 -18 c0 -3 -4 -8
-10 -11 -5 -3 -10 -1 -10 4 0 6 5 11 10 11 6 0 10 -2 10 -4z m640 -5 c0 -5 -7
-12 -16 -15 -14 -5 -15 -4 -4 9 14 17 20 19 20 6z m855 -136 c32 -36 63 -65
69 -65 6 0 29 -21 51 -47 22 -26 48 -55 57 -64 9 -10 14 -19 12 -22 -6 -6 17
-57 27 -57 4 0 6 -11 5 -25 -2 -14 3 -37 11 -52 8 -16 10 -29 4 -32 -5 -4 -13
-20 -17 -36 -3 -17 -14 -42 -22 -57 -14 -23 -14 -29 -1 -44 11 -13 11 -18 2
-21 -16 -6 -17 -55 -1 -71 9 -9 9 -12 0 -12 -7 0 -12 5 -12 10 0 6 -4 10 -9
10 -6 0 -23 13 -40 28 -17 15 -43 29 -58 30 -19 1 -24 -1 -14 -7 10 -7 10 -10
1 -16 -7 -4 -15 -3 -19 2 -12 18 -71 35 -97 29 -22 -6 -25 -4 -20 9 4 12 2 14
-12 6 -21 -11 -186 -10 -168 1 8 6 8 8 -1 8 -6 0 -15 -5 -18 -10 -4 -6 -15 -8
-24 -5 -10 3 -31 -2 -48 -10 -17 -8 -45 -17 -63 -19 -18 -2 -37 -11 -41 -19
-6 -9 -17 -13 -29 -10 -14 4 -20 0 -20 -11 0 -9 -7 -16 -15 -16 -8 0 -15 5
-15 11 0 6 -9 9 -20 6 -11 -3 -20 0 -20 6 0 6 -6 3 -12 -6 -18 -24 -89 -29
-105 -8 -11 15 -12 15 -13 -1 0 -22 1 -22 -38 -2 -23 11 -36 12 -49 5 -10 -6
-13 -11 -8 -11 6 -1 1 -5 -10 -9 -11 -5 -33 -4 -49 2 -20 7 -34 7 -47 -2 -10
-6 -28 -11 -39 -11 -11 0 -20 -4 -20 -10 0 -5 -15 -10 -34 -10 -36 0 -56 -14
-34 -23 7 -3 1 -6 -14 -6 -15 -1 -30 -5 -33 -11 -3 -5 -13 -10 -22 -10 -8 0
-28 -9 -43 -20 -16 -11 -35 -17 -44 -14 -29 11 -109 -16 -136 -46 -24 -27 -26
-28 -25 -7 2 44 28 147 36 147 5 0 9 8 9 18 0 9 11 34 25 54 14 20 25 41 25
46 0 5 19 29 42 53 23 24 42 49 42 56 1 6 13 21 29 33 15 12 27 28 27 35 0 7
14 16 30 20 28 6 35 18 31 52 -2 15 40 107 51 111 5 2 6 7 3 12 -3 4 1 10 9
13 9 4 21 -5 31 -20 12 -18 20 -22 28 -14 8 8 8 14 -1 23 -19 19 -14 25 18 20
16 -2 27 -8 24 -13 -2 -5 4 -16 15 -25 27 -24 17 -49 -12 -29 -33 23 -43 18
-18 -8 19 -21 20 -26 7 -36 -11 -9 -16 -9 -21 0 -6 8 -10 8 -16 -2 -4 -7 -5
-17 -3 -21 7 -11 48 -10 60 2 5 5 32 12 59 15 78 7 102 15 121 36 9 10 23 19
31 19 8 0 13 7 11 18 -2 9 -8 17 -15 17 -6 0 -15 3 -19 7 -4 4 -12 1 -18 -7
-7 -9 -16 -12 -25 -6 -32 21 27 111 81 124 15 4 29 15 32 25 3 9 15 23 25 29
16 10 23 10 35 -2 9 -10 17 -11 21 -5 3 5 11 10 16 10 6 0 -4 -19 -22 -42 -30
-38 -31 -41 -11 -36 15 4 22 2 22 -8 0 -19 39 -18 62 3 10 9 18 29 18 45 0 17
4 27 10 23 5 -3 7 0 4 8 -6 18 12 32 21 17 4 -6 11 -8 16 -5 12 8 12 -8 0 -20
-5 -6 -12 -21 -15 -35 -6 -24 -6 -23 9 3 27 46 40 28 43 -59 2 -43 8 -83 14
-89 8 -7 9 -1 5 23 -4 18 -2 32 3 32 6 0 10 9 10 19 0 11 5 23 11 27 8 5 9 -5
4 -33 -4 -29 -1 -52 11 -79 18 -40 21 -48 23 -73 1 -11 17 -12 87 -7 112 9
168 34 114 51 -11 3 -20 11 -20 16 0 13 9 11 26 -6 9 -8 20 -15 25 -15 14 0
22 27 14 48 -5 11 -9 13 -12 5 -3 -7 -11 -13 -19 -13 -10 0 -14 13 -14 49 0
27 -7 65 -15 84 -19 46 -19 53 2 36 15 -13 16 -11 10 24 -9 55 11 48 78 -28z
m-782 5 c-7 -28 -32 -46 -87 -64 -34 -12 -52 -14 -60 -6 -13 13 -5 20 59 55
28 15 54 31 59 35 14 14 34 0 29 -20z m-33 -119 c0 -6 -4 -13 -10 -16 -5 -3
-10 1 -10 9 0 9 5 16 10 16 6 0 10 -4 10 -9z m633 -92 c-13 -13 -33 -4 -33 14
0 7 4 6 10 -3 8 -13 10 -12 10 5 0 15 3 16 12 7 9 -9 9 -15 1 -23z m-1611
-161 c-7 -7 -12 -8 -12 -2 0 14 12 26 19 19 2 -3 -1 -11 -7 -17z m1995 -190
c-3 -8 -6 -5 -6 6 -1 11 2 17 5 13 3 -3 4 -12 1 -19z m-347 -88 c0 -5 -8 -10
-19 -10 -10 0 -40 -2 -67 -5 l-49 -6 35 14 c42 17 100 21 100 7z m-647 -107
c-13 -2 -35 -2 -50 0 -16 2 -5 4 22 4 28 0 40 -2 28 -4z m292 -3 c11 -5 14 -9
8 -9 -18 -1 -16 -21 2 -21 8 0 15 -7 15 -15 0 -8 8 -22 19 -32 10 -10 21 -31
24 -48 l6 -30 -12 28 c-6 15 -14 27 -19 27 -14 0 -9 -37 7 -50 8 -7 15 -18 15
-24 0 -6 14 -31 30 -55 17 -24 30 -52 30 -62 0 -9 4 -19 8 -21 19 -8 54 -71
49 -88 -3 -13 10 -37 42 -73 l47 -54 10 33 c10 29 7 36 -22 71 -18 21 -33 46
-34 56 0 9 -9 26 -20 37 -11 11 -15 22 -10 25 6 4 10 1 10 -4 0 -6 7 -11 15
-11 21 0 19 17 -5 30 -45 24 -90 150 -54 150 8 0 14 -7 14 -15 0 -14 13 -14
88 1 12 2 22 0 22 -6 0 -5 -9 -10 -21 -10 -11 0 -17 -4 -14 -10 3 -5 15 -10
26 -10 10 0 19 -3 19 -8 0 -17 128 -56 175 -53 60 4 85 12 85 29 0 15 11 16
92 11 51 -3 99 -1 105 4 7 5 26 7 43 5 33 -5 32 -7 35 72 3 75 5 81 15 75 6
-3 10 -13 10 -21 0 -8 9 -24 19 -35 14 -16 18 -30 14 -58 -3 -27 -2 -32 6 -21
11 15 12 13 15 -22 1 -7 7 -19 14 -26 18 -20 15 -32 -8 -32 -11 0 -20 -7 -20
-15 0 -30 -33 -111 -61 -150 -28 -37 -30 -38 -35 -17 -6 22 -34 32 -34 11 0
-5 -4 -7 -10 -4 -6 3 -10 -5 -10 -19 0 -15 -8 -30 -20 -36 -25 -14 -25 -35 0
-60 11 -11 17 -26 14 -34 -3 -8 1 -16 11 -18 19 -3 32 -78 15 -78 -6 0 -10 -7
-10 -15 0 -9 -12 -27 -26 -40 -14 -13 -23 -29 -19 -35 3 -6 10 -8 15 -5 9 5
23 -25 15 -33 -2 -3 -11 1 -19 7 -16 13 -56 6 -56 -10 0 -18 -29 -9 -55 17
-35 34 -41 25 -15 -21 12 -21 19 -45 17 -54 -4 -13 -6 -11 -12 7 -4 12 -15 22
-24 22 -9 0 -27 7 -39 16 -14 10 -32 14 -48 10 -20 -5 -24 -3 -25 16 0 13 -3
17 -6 10 -2 -7 -14 -17 -24 -23 -16 -8 -23 -6 -38 12 -19 24 -41 19 -41 -9 0
-13 -9 -17 -37 -17 -29 0 -37 -4 -35 -15 3 -11 1 -12 -8 -4 -17 17 -52 5 -45
-16 4 -13 -1 -17 -28 -18 -19 -1 -55 -10 -81 -21 -36 -16 -61 -19 -108 -16
-34 3 -64 7 -67 10 -10 11 15 24 52 28 21 2 40 7 44 11 3 3 13 0 21 -7 12 -9
16 -9 19 1 3 6 11 12 20 12 19 0 46 27 38 40 -8 13 8 13 22 -1 15 -15 83 -1
76 17 -4 11 -9 10 -29 -3 -14 -9 -27 -13 -31 -10 -9 10 6 39 17 32 5 -3 10 1
10 9 0 9 -4 16 -10 16 -5 0 -10 -4 -10 -9 0 -5 -7 -11 -15 -15 -10 -3 -15 1
-15 13 0 10 6 19 13 18 43 -1 57 4 57 22 0 11 13 30 30 43 27 21 30 30 34 91
3 41 1 65 -5 62 -5 -4 -21 2 -37 13 -15 10 -40 22 -56 26 -15 4 -40 16 -55 26
-24 18 -32 19 -91 8 -36 -6 -81 -11 -100 -11 -59 3 -76 -5 -104 -47 -14 -21
-40 -47 -56 -55 l-31 -16 17 38 c9 21 18 44 21 51 3 6 9 12 14 12 5 0 9 12 9
26 0 23 3 25 25 20 20 -5 25 -3 25 13 0 10 7 24 15 31 8 7 12 16 9 21 -7 12
-44 11 -44 -1 0 -5 -7 -10 -16 -10 -12 0 -15 6 -10 23 4 12 9 41 12 65 2 23
15 73 27 111 22 63 22 69 6 79 -18 12 -18 60 1 72 6 4 10 11 8 15 -1 4 4 11
12 15 8 4 24 12 35 18 24 13 53 14 80 2z m842 -12 c2 -18 0 -20 -7 -8 -12 18
-13 30 -2 30 4 0 9 -10 9 -22z m-454 5 c-7 -2 -19 -2 -25 0 -7 3 -2 5 12 5 14
0 19 -2 13 -5z m-669 -259 c5 -14 9 -14 23 -3 14 12 14 10 -2 -14 -17 -27 -17
-27 1 -20 11 3 22 11 26 17 5 8 8 7 8 -1 0 -6 -4 -15 -10 -18 -5 -3 -10 -21
-10 -39 0 -18 -3 -36 -7 -40 -4 -4 -9 -30 -10 -57 -1 -28 -9 -62 -18 -75 -12
-18 -14 -34 -9 -52 5 -15 9 -36 10 -47 1 -11 2 -28 3 -37 0 -10 7 -18 15 -18
10 0 16 -21 21 -75 4 -41 10 -75 15 -75 4 0 6 -9 3 -20 -3 -12 1 -22 11 -26
27 -11 18 -24 -13 -18 -27 6 -30 4 -33 -27 -3 -34 -24 -51 -30 -24 -2 13 -8
12 -35 -7 -18 -13 -33 -28 -33 -35 0 -7 -7 -10 -15 -7 -9 4 -15 1 -15 -7 0 -7
-8 -2 -17 11 -10 14 -16 33 -15 44 4 18 3 18 -27 0 -17 -10 -31 -24 -31 -31 0
-14 -2 -15 -42 -18 -15 -1 -25 2 -22 6 3 5 -1 16 -8 24 -38 45 -40 46 -55 33
-12 -10 -17 -8 -26 7 -12 21 -13 26 -15 63 -1 13 -6 21 -11 17 -5 -3 -12 -1
-16 5 -3 5 -1 10 5 10 7 0 9 7 6 17 -4 10 -4 14 0 10 13 -12 32 13 27 36 -4
18 -3 19 6 7 9 -12 11 -11 11 8 0 13 4 31 10 41 9 19 -7 71 -22 71 -5 0 -8 9
-8 19 0 12 -9 21 -25 25 -31 8 -46 0 -38 -19 3 -8 0 -15 -6 -15 -6 0 -11 5
-11 10 0 8 -81 8 -100 0 -35 -15 -55 4 -63 63 -6 45 -5 47 17 47 13 0 26 7 30
15 3 9 12 12 22 8 10 -3 22 0 28 8 6 8 20 16 31 17 10 2 24 10 30 18 13 18
100 44 125 37 19 -5 19 -6 3 -18 -30 -22 -9 -26 52 -10 61 15 105 39 105 55 0
6 9 10 19 10 13 0 21 9 26 28 4 18 20 37 47 55 49 32 54 32 62 11z m454 -9
c13 -29 5 -33 -14 -7 -15 20 -18 32 -6 32 5 0 14 -11 20 -25z m-718 -115 c0
-5 -2 -10 -4 -10 -3 0 -8 5 -11 10 -3 6 -1 10 4 10 6 0 11 -4 11 -10z m1367
-312 c-3 -8 -6 -5 -6 6 -1 11 2 17 5 13 3 -3 4 -12 1 -19z m42 -82 c9 -11 8
-15 -5 -20 -22 -9 -50 14 -32 25 18 12 24 11 37 -5z m-1058 -42 c-9 -28 -9
-29 -10 -3 -1 14 2 29 6 32 11 12 13 2 4 -29z m459 -49 c0 -8 5 -15 12 -15 6
0 8 -3 5 -6 -8 -8 -37 14 -37 27 0 5 5 9 10 9 6 0 10 -7 10 -15z m830 -34 c14
-27 13 -31 -9 -31 -12 0 -20 9 -23 25 -6 30 16 34 32 6z m-453 -27 c-3 -3 -12
-4 -19 -1 -8 3 -5 6 6 6 11 1 17 -2 13 -5z m-1817 -39 c0 -5 -5 -3 -10 5 -5 8
-10 20 -10 25 0 6 5 3 10 -5 5 -8 10 -19 10 -25z m90 -26 c0 -11 -4 -18 -10
-14 -5 3 -7 12 -3 20 7 21 13 19 13 -6z m670 -9 c0 -5 -4 -10 -10 -10 -5 0
-10 5 -10 10 0 6 5 10 10 10 6 0 10 -4 10 -10z m720 0 c24 -8 23 -8 -7 -9 -18
-1 -33 -6 -33 -12 0 -5 -4 -8 -9 -4 -5 3 -12 1 -16 -5 -3 -5 -18 -10 -33 -11
-25 0 -25 -1 -6 -9 12 -5 39 -5 60 0 60 13 113 18 112 11 0 -3 0 -14 1 -23 1
-22 21 -24 21 -3 0 9 6 12 15 9 8 -4 15 -2 15 4 0 6 9 8 20 5 11 -3 26 0 33 6
15 12 100 4 105 -10 2 -5 10 -9 18 -9 8 0 14 -9 14 -20 0 -11 -7 -20 -15 -20
-17 0 -20 -25 -5 -35 6 -4 8 -11 5 -16 -4 -5 0 -12 8 -15 9 -3 13 -13 10 -25
-3 -10 -1 -25 5 -32 8 -10 6 -13 -9 -13 -10 0 -19 6 -19 13 0 19 -13 16 -28
-7 -10 -17 -10 -20 3 -20 8 0 15 -7 15 -15 0 -8 7 -15 15 -15 12 0 14 -7 9
-27 -10 -48 -13 -53 -28 -47 -8 3 -17 1 -20 -4 -3 -5 3 -12 14 -15 37 -9 23
-30 -15 -23 -24 5 -35 3 -35 -5 0 -9 -3 -9 -14 0 -10 9 -15 8 -19 -3 -3 -8
-21 -22 -40 -31 -19 -9 -37 -25 -40 -35 -4 -15 -15 -18 -63 -19 -39 0 -60 -5
-66 -14 -7 -13 -29 -14 -75 -6 -4 1 -21 1 -37 0 -20 -1 -27 -5 -23 -15 3 -8
-2 -16 -14 -19 -10 -3 -17 -1 -13 4 3 5 -14 6 -38 3 -33 -5 -47 -2 -57 10 -17
20 -31 21 -31 1 0 -21 -23 -19 -40 5 -9 13 -26 20 -47 20 -17 0 -35 5 -38 10
-3 6 -14 10 -25 10 -13 0 -17 5 -13 20 4 15 0 20 -13 20 -14 0 -15 3 -6 12 18
18 14 30 -7 23 -10 -3 -23 1 -30 9 -7 8 -19 12 -27 9 -7 -3 -16 2 -20 10 -3 8
-26 20 -51 26 -38 10 -43 14 -33 26 11 14 7 19 -12 16 -4 0 -5 6 -2 14 4 10 0
15 -12 16 -17 1 -17 2 -1 6 31 8 18 25 -17 21 -24 -3 -32 0 -29 9 3 7 -1 15
-9 18 -8 3 -14 16 -15 28 -2 19 -1 20 8 5 6 -10 16 -18 24 -18 10 0 12 6 8 18
-6 15 -5 15 10 4 12 -11 24 -11 49 -4 28 9 52 10 91 3 4 0 7 -12 7 -25 0 -16
14 -36 43 -60 30 -26 37 -36 24 -36 -10 0 -16 -4 -13 -9 3 -5 15 -7 26 -4 14
4 20 0 20 -10 0 -25 33 -37 86 -32 27 2 51 5 54 6 7 2 31 5 52 7 11 1 15 8 12
17 -7 17 11 21 21 5 3 -5 12 -10 18 -10 7 0 4 5 -5 11 -10 5 -18 15 -18 20 0
6 8 8 18 5 19 -6 37 3 43 21 3 9 9 9 19 3 13 -9 13 -11 0 -21 -12 -9 -11 -10
5 -4 28 9 101 25 158 34 49 8 71 25 62 49 -2 6 2 12 10 12 8 0 17 11 21 25 3
14 14 30 23 35 14 8 14 9 -3 10 -19 0 -19 0 0 22 10 12 14 18 7 15 -6 -4 -38
-11 -71 -15 -54 -8 -59 -7 -54 10 5 21 6 21 -108 18 -75 -1 -204 -21 -246 -37
-9 -3 -14 1 -14 12 0 11 5 15 15 11 9 -3 30 3 47 14 l32 19 -25 9 c-13 5 -33
12 -44 14 -35 8 25 26 138 41 118 16 172 18 207 7z m-380 -115 c0 -8 -4 -15
-10 -15 -5 0 -10 7 -10 15 0 8 5 15 10 15 6 0 10 -7 10 -15z m-30 -4 c0 -12
-29 -23 -41 -15 -18 10 -9 24 16 24 14 0 25 -4 25 -9z m670 -301 c0 -5 -4 -10
-10 -10 -5 0 -10 5 -10 10 0 6 5 10 10 10 6 0 10 -4 10 -10z m-756 -51 c-3 -5
-10 -7 -15 -3 -5 3 -7 10 -3 15 3 5 10 7 15 3 5 -3 7 -10 3 -15z m1726 -899
c0 -5 -4 -10 -10 -10 -5 0 -10 5 -10 10 0 6 5 10 10 10 6 0 10 -4 10 -10z m37
-16 c-3 -3 -12 -4 -19 -1 -8 3 -5 6 6 6 11 1 17 -2 13 -5z m110 -40 c-3 -3
-12 -4 -19 -1 -8 3 -5 6 6 6 11 1 17 -2 13 -5z m70 -20 c-3 -3 -12 -4 -19 -1
-8 3 -5 6 6 6 11 1 17 -2 13 -5z m143 -14 c0 -5 -4 -10 -10 -10 -5 0 -10 5
-10 10 0 6 5 10 10 10 6 0 10 -4 10 -10z m63 -7 c-7 -2 -21 -2 -30 0 -10 3 -4
5 12 5 17 0 24 -2 18 -5z m177 -27 c0 -2 -9 -6 -20 -9 -11 -3 -18 -1 -14 4 5
9 34 13 34 5z m87 -29 c4 -7 0 -8 -11 -4 -10 4 -27 7 -37 7 -11 0 -18 4 -15 9
7 11 54 2 63 -12z m-142 3 c3 -5 -1 -10 -10 -10 -9 0 -13 5 -10 10 3 6 8 10
10 10 2 0 7 -4 10 -10z m-634 -93 c-10 -9 -11 -8 -5 6 3 10 9 15 12 12 3 -3 0
-11 -7 -18z m344 -7 c3 -5 1 -10 -4 -10 -6 0 -11 5 -11 10 0 6 2 10 4 10 3 0
8 -4 11 -10z m-875 -100 c6 9 10 10 10 3 0 -6 3 -20 7 -30 6 -16 5 -16 -10 -4
-15 12 -17 11 -17 -3 0 -9 -7 -16 -15 -16 -8 0 -15 5 -15 10 0 6 -7 10 -15 10
-8 0 -15 7 -15 15 0 9 6 12 15 9 10 -4 15 0 15 12 1 18 1 18 16 -1 13 -17 16
-18 24 -5z m45 10 c3 -5 1 -10 -4 -10 -6 0 -11 5 -11 10 0 6 2 10 4 10 3 0 8
-4 11 -10z m-138 -57 c-3 -10 -5 -4 -5 12 0 17 2 24 5 18 2 -7 2 -21 0 -30z
m213 27 c0 -5 -4 -10 -10 -10 -5 0 -10 5 -10 10 0 6 5 10 10 10 6 0 10 -4 10
-10z m-20 -40 c0 -14 27 -12 34 3 3 6 4 -1 1 -16 -4 -20 -2 -27 6 -22 8 6 8 2
0 -14 -11 -20 -33 -23 -58 -8 -18 11 -16 27 2 27 18 0 19 12 3 28 -9 9 -9 12
0 12 7 0 12 -4 12 -10z m-3052 -65 c-3 -3 -9 2 -12 12 -6 14 -5 15 5 6 7 -7
10 -15 7 -18z m3012 15 c0 -5 -4 -10 -10 -10 -5 0 -10 5 -10 10 0 6 5 10 10
10 6 0 10 -4 10 -10z m-1555 -50 c-3 -5 -11 -10 -16 -10 -6 0 -7 5 -4 10 3 6
11 10 16 10 6 0 7 -4 4 -10z m1632 -22 c-3 -7 -5 -2 -5 12 0 14 2 19 5 13 2
-7 2 -19 0 -25z m-1769 11 c-2 -6 -8 -11 -13 -10 -5 0 -11 4 -13 10 -2 6 4 11
13 11 9 0 15 -5 13 -11z"/>
<path d="M1718 4013 c7 -3 16 -2 19 1 4 3 -2 6 -13 5 -11 0 -14 -3 -6 -6z"/>
<path d="M2316 3612 c-2 -4 2 -16 10 -27 8 -10 14 -16 14 -13 0 4 3 13 6 21 5
15 -22 32 -30 19z"/>
<path d="M2290 3572 c0 -12 19 -26 26 -19 2 2 -2 10 -11 17 -9 8 -15 8 -15 2z"/>
<path d="M2530 3496 c0 -9 5 -16 11 -16 6 0 9 -7 5 -15 -3 -8 -1 -15 3 -15 8
0 25 31 19 34 -2 1 -11 8 -20 15 -15 12 -18 11 -18 -3z"/>
<path d="M2268 2893 c6 -2 18 -2 25 0 6 3 1 5 -13 5 -14 0 -19 -2 -12 -5z"/>
<path d="M1710 2499 c0 -5 5 -7 10 -4 6 3 10 8 10 11 0 2 -4 4 -10 4 -5 0 -10
-5 -10 -11z"/>
<path d="M1603 2454 c7 -8 97 -7 105 1 3 3 -21 5 -53 5 -32 0 -56 -3 -52 -6z"/>
<path d="M2904 1621 c-10 -11 -2 -16 26 -16 17 0 30 5 30 12 0 12 -45 15 -56
4z"/>
<path d="M2150 1569 c0 -5 5 -7 10 -4 6 3 10 8 10 11 0 2 -4 4 -10 4 -5 0 -10
-5 -10 -11z"/>
<path d="M2865 1550 c-3 -5 1 -10 9 -10 9 0 16 5 16 10 0 6 -4 10 -9 10 -6 0
-13 -4 -16 -10z"/>
<path d="M2320 1530 c0 -5 5 -10 10 -10 6 0 10 5 10 10 0 6 -4 10 -10 10 -5 0
-10 -4 -10 -10z"/>
<path d="M2630 4329 c0 -6 5 -7 10 -4 18 11 114 -25 138 -52 13 -14 25 -23 28
-20 3 2 -9 20 -25 38 -17 18 -31 36 -31 39 0 3 -27 6 -60 7 -35 1 -60 -2 -60
-8z"/>
<path d="M2601 4311 c13 -11 26 -17 28 -15 5 5 -30 33 -43 34 -4 0 2 -9 15
-19z"/>
<path d="M2808 4223 c7 -12 4 -22 -9 -37 -11 -11 -19 -27 -18 -35 0 -10 4 -8
9 7 5 12 14 22 19 22 13 0 22 27 15 45 -4 8 -10 15 -16 15 -5 0 -5 -6 0 -17z"/>
<path d="M2390 4206 c0 -2 9 -6 20 -9 11 -3 18 -1 14 4 -5 9 -34 13 -34 5z"/>
<path d="M2310 4190 c0 -5 5 -10 10 -10 6 0 10 5 10 10 0 6 -4 10 -10 10 -5 0
-10 -4 -10 -10z"/>
<path d="M2100 4180 c0 -6 7 -10 15 -10 8 0 15 2 15 4 0 2 -7 6 -15 10 -8 3
-15 1 -15 -4z"/>
<path d="M1700 4176 c0 -2 9 -6 20 -9 11 -3 20 -1 20 4 0 5 -9 9 -20 9 -11 0
-20 -2 -20 -4z"/>
<path d="M1695 4150 c-3 -5 1 -10 10 -10 9 0 13 5 10 10 -3 6 -8 10 -10 10 -2
0 -7 -4 -10 -10z"/>
<path d="M2895 4098 c26 -16 65 -21 65 -9 0 12 -25 21 -58 21 -25 -1 -26 -1
-7 -12z"/>
<path d="M140 3540 c0 -50 19 -94 21 -50 2 43 -2 75 -12 85 -5 5 -9 -8 -9 -35z"/>
<path d="M3436 1656 c3 -8 -1 -25 -10 -37 -9 -13 -13 -32 -10 -46 4 -13 0 -33
-9 -46 -17 -26 -22 -219 -11 -384 l6 -93 43 0 43 0 -4 68 c-2 37 -9 164 -15
282 -6 118 -15 216 -19 218 -4 2 -6 11 -3 21 3 10 0 22 -6 25 -7 4 -9 1 -5 -8z"/>
<path d="M3385 1580 c9 -30 13 -35 21 -27 3 3 -2 16 -11 29 l-17 23 7 -25z"/>
<path d="M50 1560 c0 -5 16 -10 35 -10 19 0 35 5 35 10 0 6 -16 10 -35 10 -19
0 -35 -4 -35 -10z"/>
<path d="M160 1561 c0 -11 40 -22 53 -14 5 3 3 9 -4 14 -18 11 -49 11 -49 0z"/>
<path d="M3405 972 c-6 -17 2 -31 31 -54 12 -10 27 -31 34 -48 7 -16 15 -30
19 -30 3 0 6 30 6 67 l0 68 -42 6 c-31 4 -44 2 -48 -9z"/>
<path d="M313 795 c2 -50 8 -90 15 -97 22 -22 34 7 33 78 -1 53 -5 71 -20 86
-11 10 -22 18 -25 18 -3 0 -4 -38 -3 -85z"/>
<path d="M0 429 c0 -11 4 -17 10 -14 13 8 13 35 0 35 -5 0 -10 -9 -10 -21z"/>
<path d="M0 240 c0 -29 4 -40 13 -37 6 2 12 19 12 37 0 18 -6 35 -12 38 -9 2
-13 -9 -13 -38z"/>
</g>
</svg>
